<?xml version="1.0" encoding="utf-8"?>
<!-- Generator: Adobe Illustrator 28.2.0, SVG Export Plug-In . SVG Version: 6.00 Build 0)  -->
<svg version="1.1" id="Layer_1" xmlns="http://www.w3.org/2000/svg" xmlns:xlink="http://www.w3.org/1999/xlink" x="0px" y="0px"
	 viewBox="0 0 27 23" style="enable-background:new 0 0 27 23;" xml:space="preserve">
<style type="text/css">
	.st0{fill:#FFFFFF;}
</style>
<path class="st0" d="M6.7,17.4l0.5-0.7L6.7,17.4z M3.6,10.1l-0.8,0.2L3.6,10.1z M6.5,17.2L7,16.6L6.5,17.2z M24.7,10.7l-0.8-0.2
	L24.7,10.7z M22.3,16.9l-0.6-0.6L22.3,16.9z M21.4,17.6l-0.4-0.7L21.4,17.6z M24.6,6.3l0.6-0.6L24.6,6.3z M25,6.8l-0.7,0.4L25,6.8z
	 M2.2,0.8c-0.1-0.4-0.6-0.7-1-0.6c-0.4,0.1-0.7,0.6-0.6,1L2.2,0.8z M18,15.1c0.5,0,0.8-0.4,0.8-0.8c0-0.5-0.4-0.8-0.8-0.8V15.1z
	 M11.4,13.4c-0.5,0-0.8,0.4-0.8,0.8c0,0.5,0.4,0.8,0.8,0.8V13.4z M2.6,6.5h18.1V4.8H2.6V6.5z M14.8,17.6h-0.6v1.7h0.6V17.6z
	 M4.4,9.9L3.4,5.5L1.8,5.8l1.1,4.5L4.4,9.9z M14.2,17.6c-2,0-3.5,0-4.6-0.1c-1.1-0.1-1.8-0.4-2.4-0.8l-1,1.3c0.9,0.7,1.9,1,3.2,1.1
	c1.3,0.1,2.8,0.1,4.8,0.1V17.6z M2.8,10.3c0.5,1.9,0.8,3.5,1.3,4.7c0.4,1.2,1,2.1,1.8,2.9L7,16.6c-0.6-0.5-1-1.1-1.3-2.1
	c-0.4-1.1-0.7-2.5-1.2-4.5L2.8,10.3z M7.2,16.7c-0.1,0-0.1-0.1-0.2-0.1L6,17.8C6,17.9,6.1,18,6.2,18L7.2,16.7z M23.8,10.5
	c-0.4,1.7-0.7,2.9-1,3.9c-0.3,0.9-0.7,1.5-1.1,1.9l1.2,1.2c0.7-0.7,1.1-1.5,1.5-2.6c0.4-1,0.7-2.4,1.1-4L23.8,10.5z M14.8,19.3
	c1.7,0,3.1,0,4.2-0.1c1.1-0.1,2-0.3,2.8-0.9l-0.9-1.4c-0.5,0.3-1.2,0.5-2.1,0.6c-1,0.1-2.3,0.1-4,0.1V19.3z M21.7,16.3
	c-0.2,0.2-0.5,0.4-0.8,0.6l0.9,1.4c0.4-0.2,0.8-0.5,1.1-0.9L21.7,16.3z M20.7,6.5c1.1,0,1.8,0,2.4,0.1c0.5,0.1,0.8,0.2,0.9,0.3
	l1.1-1.2C24.6,5.2,24,5,23.3,4.9c-0.7-0.1-1.5-0.1-2.6-0.1V6.5z M25.5,10.9c0.2-1,0.4-1.9,0.5-2.5c0.1-0.7,0-1.4-0.3-2l-1.4,0.8
	c0.1,0.2,0.2,0.4,0.1,0.9c-0.1,0.6-0.2,1.3-0.5,2.4L25.5,10.9z M24,6.9c0.1,0.1,0.2,0.2,0.2,0.3l1.4-0.8c-0.1-0.3-0.3-0.5-0.5-0.7
	L24,6.9z M3.4,5.5L2.2,0.8L0.6,1.2l1.2,4.7L3.4,5.5z M18,13.4h-6.6v1.7H18V13.4z"/>
<path class="st0" d="M11,21.8c0,0.6-0.5,1.2-1.2,1.2c-0.6,0-1.2-0.5-1.2-1.2c0-0.6,0.5-1.2,1.2-1.2C10.5,20.7,11,21.2,11,21.8z"/>
<path class="st0" d="M18,21.8c0,0.6-0.5,1.2-1.2,1.2s-1.2-0.5-1.2-1.2c0-0.6,0.5-1.2,1.2-1.2S18,21.2,18,21.8z"/>
</svg>
