<?xml version="1.0" encoding="utf-8"?>
<!-- Generator: Adobe Illustrator 28.2.0, SVG Export Plug-In . SVG Version: 6.00 Build 0)  -->
<svg version="1.1" id="Layer_2_00000000931568371529226160000016525310314945408170_"
	 xmlns="http://www.w3.org/2000/svg" xmlns:xlink="http://www.w3.org/1999/xlink" x="0px" y="0px" viewBox="0 0 144.2 156.9"
	 style="enable-background:new 0 0 144.2 156.9;" xml:space="preserve">
<style type="text/css">
	.st0{fill:#FFFFFF;}
</style>
<g id="Layer_1-2">
	<path class="st0" d="M144.2,142.8v-1.6c0-9.7-1.9-19.2-5.7-28.1c-3.6-8.6-8.8-16.3-15.4-22.9c-6.6-6.6-14.3-11.8-22.9-15.5
		c-0.6-0.2-1.1-0.5-1.7-0.7c1.1-0.9,2.1-1.8,3.1-2.8c3.8-3.8,6.8-8.3,8.9-13.3c2.2-5.2,3.3-10.6,3.3-16.2s-1.1-11.1-3.3-16.2
		c-2.1-5-5.1-9.4-8.9-13.3c-3.8-3.8-8.3-6.8-13.2-8.9C83.2,1.1,77.7,0,72.1,0S61,1.1,55.9,3.3c-5,2.1-9.4,5.1-13.2,8.9
		c-3.8,3.8-6.8,8.3-8.9,13.3c-2.2,5.1-3.3,10.6-3.3,16.2s1.1,11.1,3.3,16.2c2.1,5,5.1,9.4,8.9,13.3c1,1,2,1.9,3.1,2.8
		c-0.6,0.2-1.1,0.4-1.7,0.7c-8.6,3.6-16.3,8.8-22.9,15.5c-6.6,6.6-11.8,14.3-15.4,22.9C1.9,122,0,131.5,0,141.2v1.6
		c0,7.4,5.7,13.5,12.9,14.2l119.4-0.1h0c1.2-0.1,2.4-0.5,3.6-1.1C140.8,153.5,144.2,148.5,144.2,142.8L144.2,142.8z M41.4,54.7
		c-1.7-4.1-2.6-8.5-2.6-13s0.9-8.9,2.6-13c1.7-4,4.1-7.5,7.2-10.6c3.1-3.1,6.6-5.5,10.6-7.1c4.1-1.7,8.5-2.6,13-2.6s8.9,0.9,13,2.6
		c4,1.7,7.5,4.1,10.6,7.1s5.5,6.6,7.2,10.6c1.7,4.1,2.6,8.5,2.6,13s-0.9,8.9-2.6,13c-1.7,4-4.1,7.5-7.2,10.6
		c-3.1,3.1-6.6,5.5-10.6,7.2c-4.1,1.7-8.5,2.6-13,2.6s-8.9-0.9-13-2.6c-4-1.7-7.5-4.1-10.6-7.2C45.5,62.2,43.1,58.7,41.4,54.7z
		 M135.9,142.8c0,3.2-2.6,5.9-5.9,5.9H14.2c-3.2,0-5.9-2.6-5.9-5.9v-1.6c0-8.6,1.7-17,5-24.8c3.2-7.6,7.8-14.4,13.7-20.3
		s12.7-10.5,20.3-13.7c1.7-0.7,3.4-1.3,5.1-1.9c0.6-0.2,1.2-0.4,1.8-0.6c0.2-0.1,0.4-0.2,0.6-0.2c0.3,0.2,0.7,0.3,1,0.4
		c5.2,2.2,10.6,3.3,16.2,3.3s11.1-1.1,16.2-3.3c0.3-0.1,0.7-0.3,1-0.4c0.2,0.1,0.4,0.2,0.6,0.2c2.3,0.7,4.7,1.5,6.9,2.5
		c7.6,3.2,14.4,7.8,20.3,13.7s10.4,12.7,13.7,20.3c3.3,7.9,5,16.2,5,24.8L135.9,142.8L135.9,142.8z"/>
</g>
</svg>
